# xmcd
#
# Track frame offsets:
#	150
#	8555
#	20248
#	30652
#	52519
#	65442
#	82457
#	95265
#	114156
#	132653
#	146831
#	159407
#	176733
#	201843
#	223374
#
# Disc length: 3124 seconds
#
# Revision: 1
# Processed by: cddbd v1.5.2PL0 Copyright (c) Steve Scherf et al.
# Submitted via: audiograbber 1.83.01
#
DISCID=d60c320f
DTITLE=Dellnhau'n - aufgrooved
DYEAR=2006
DGENRE=Volksmusik
TTITLE0=Griaﬂ Euch Gott
TTITLE1=Geistergalopp
TTITLE2=Gsottloch meets Jazz
TTITLE3=Kirtanudl
TTITLE4=Schaufestiel
TTITLE5=Jodl-Idyll
TTITLE6=Rund is Gsund
TTITLE7=Oafach Boarisch
TTITLE8=Unser oide Kath
TTITLE9=Mia san Holledauer
TTITLE10=Oafach toujours
TTITLE11=‹ber d'Alma
TTITLE12=Hopfakirm
TTITLE13=Euro_Landler
TTITLE14=Auf und Davo
EXTD=
EXTT0=
EXTT1=
EXTT2=
EXTT3=
EXTT4=
EXTT5=
EXTT6=
EXTT7=
EXTT8=
EXTT9=
EXTT10=
EXTT11=
EXTT12=
EXTT13=
EXTT14=
PLAYORDER=
